<?xml version="1.0" encoding="utf-8"?>
<!-- Generator: Adobe Illustrator 24.0.0, SVG Export Plug-In . SVG Version: 6.00 Build 0)  -->
<svg version="1.1" id="Layer_1" xmlns="http://www.w3.org/2000/svg" xmlns:xlink="http://www.w3.org/1999/xlink" x="0px" y="0px"
	 viewBox="0 0 72 72" style="enable-background:new 0 0 72 72;" xml:space="preserve">
<style type="text/css">
	.st0{fill:none;}
</style>
<title>info</title>
<rect class="st0" width="72" height="72"/>
<g>
	<path d="M22.8,53.4L22.8,53.4c-1.7,0-2.8-1.7-2.2-3.3l12.6-29.8c1-2.4,4.5-2.4,5.5,0l12.6,29.8c0.7,1.6-0.5,3.3-2.2,3.3h0
		c-1,0-1.8-0.6-2.2-1.5l-2.6-6.5H27.5L25,51.9C24.6,52.8,23.7,53.4,22.8,53.4z M42.9,41.4L36,24.1l-6.9,17.3H42.9z"/>
	<path d="M9,13v46c0,2.2,1.8,4,4,4h46c2.2,0,4-1.8,4-4V13c0-2.2-1.8-4-4-4H13C10.8,9,9,10.8,9,13z M59,59H13V13h46V59z"/>
</g>
</svg>
