<?xml version="1.0" encoding="utf-8"?>
<!-- Generator: Adobe Illustrator 24.0.0, SVG Export Plug-In . SVG Version: 6.00 Build 0)  -->
<svg version="1.1" id="Layer_1" xmlns="http://www.w3.org/2000/svg" xmlns:xlink="http://www.w3.org/1999/xlink" x="0px" y="0px"
	 viewBox="0 0 72 72" style="enable-background:new 0 0 72 72;" xml:space="preserve">
<style type="text/css">
	.st0{fill:none;}
</style>
<title>account_circle</title>
<rect class="st0" width="72" height="72"/>
<g>
	<path d="M36,9C21.1,9,9,21.1,9,36s12.1,27,27,27s27-12.1,27-27S50.9,9,36,9z M13,36c0-12.7,10.3-23,23-23s23,10.3,23,23
		c0,6-2.3,11.4-6,15.5c-4.6-3.8-10.5-6-17-6c-6.4,0-12.4,2.3-17,6C15.3,47.4,13,42,13,36z M22,54.2c3.9-3,8.7-4.8,14-4.8
		c5.3,0,10.1,1.8,14,4.8c-3.9,3-8.7,4.8-14,4.8C30.7,59,25.9,57.2,22,54.2z"/>
	<path d="M36,42.1c5.5,0,10-4.5,10-10c0-5.5-4.5-10-10-10s-10,4.5-10,10C26,37.6,30.5,42.1,36,42.1z M36,26.1c3.3,0,6,2.7,6,6
		s-2.7,6-6,6s-6-2.7-6-6S32.7,26.1,36,26.1z"/>
</g>
</svg>
