<?xml version="1.0" encoding="utf-8"?>
<!-- Generator: Adobe Illustrator 24.0.0, SVG Export Plug-In . SVG Version: 6.00 Build 0)  -->
<svg version="1.1" id="Layer_1" xmlns="http://www.w3.org/2000/svg" xmlns:xlink="http://www.w3.org/1999/xlink" x="0px" y="0px"
	 viewBox="0 0 72 72" style="enable-background:new 0 0 72 72;" xml:space="preserve">
<style type="text/css">
	.st0{fill:none;}
</style>
<title>photo</title>
<rect class="st0" width="72" height="72"/>
<g>
	<path d="M37.2,37l-6.9,7.9l-4.4-5c-0.9-1-2.5-0.9-3.2,0.3l-7.5,11.9c-0.8,1.3,0.1,3.1,1.7,3.1h31c1.6,0,2.5-1.7,1.7-3.1l-9.3-14.9
		C39.7,36.1,38.1,36,37.2,37z M20.6,51.1l4.1-6.6l3.3,3.8c1.2,1.4,3.3,1.4,4.5,0l5.9-6.8l5.9,9.5H20.6z"/>
	<g>
		<path d="M55.5,16.5v-5c0-1.1-0.9-2-2-2h0c-1.1,0-2,0.9-2,2v5h-5c-1.1,0-2,0.9-2,2v0c0,1.1,0.9,2,2,2h5v4c0,1.1,0.9,2,2,2h0
			c1.1,0,2-0.9,2-2v-4h5c1.1,0,2-0.9,2-2v0c0-1.1-0.9-2-2-2H55.5z"/>
		<path d="M51.5,58.5h-38v-38h24c1.1,0,2-0.9,2-2v0c0-1.1-0.9-2-2-2h-24c-2.2,0-4,1.8-4,4v38c0,2.2,1.8,4,4,4h38c2.2,0,4-1.8,4-4
			v-25c0-1.1-0.9-2-2-2h0c-1.1,0-2,0.9-2,2V58.5z"/>
	</g>
</g>
</svg>
