<?xml version="1.0" encoding="utf-8"?>
<!-- Generator: Adobe Illustrator 24.0.0, SVG Export Plug-In . SVG Version: 6.00 Build 0)  -->
<svg version="1.1" id="Layer_1" xmlns="http://www.w3.org/2000/svg" xmlns:xlink="http://www.w3.org/1999/xlink" x="0px" y="0px"
	 viewBox="0 0 72 72" style="enable-background:new 0 0 72 72;" xml:space="preserve">
<style type="text/css">
	.st0{fill:none;}
</style>
<title>build</title>
<rect class="st0" width="72" height="72"/>
<path d="M17.4,13.2l8,8l-4.2,4.2l-8-8c-1-1-2.6-0.7-3.2,0.5C7.3,23.9,8.4,31,13.2,35.9c4.6,4.6,11.3,5.8,17,3.6l21.1,21.1
	c1.6,1.6,4.1,1.6,5.7,0l3.5-3.5c1.6-1.6,1.6-4.1,0-5.7L39.5,30.3c2.2-5.7,1-12.4-3.6-17C31,8.4,23.9,7.3,18,10
	C16.7,10.5,16.5,12.2,17.4,13.2z M36.7,33.1l21.1,21.1l-3.5,3.5L33.1,36.7c-1.1-1.1-2.8-1.4-4.3-0.9c-4.3,1.6-9.3,0.7-12.7-2.7
	c-2.8-2.8-3.9-6.7-3.3-10.4l5.6,5.6c1.6,1.6,4.1,1.6,5.7,0l4.3-4.3c1.6-1.6,1.6-4.1,0-5.7l-5.6-5.6c3.7-0.6,7.6,0.5,10.4,3.3
	c3.4,3.4,4.4,8.4,2.7,12.7C35.2,30.3,35.5,32,36.7,33.1z"/>
</svg>
