<?xml version="1.0" encoding="utf-8"?>
<!-- Generator: Adobe Illustrator 24.0.0, SVG Export Plug-In . SVG Version: 6.00 Build 0)  -->
<svg version="1.1" id="Layer_1" xmlns="http://www.w3.org/2000/svg" xmlns:xlink="http://www.w3.org/1999/xlink" x="0px" y="0px"
	 viewBox="0 0 72 72" style="enable-background:new 0 0 72 72;" xml:space="preserve">
<style type="text/css">
	.st0{fill:none;}
</style>
<title>directions_car</title>
<rect class="st0" width="72" height="72"/>
<circle cx="49" cy="42" r="3.5"/>
<g>
	<circle cx="23" cy="42.1" r="3.5"/>
	<path d="M53.3,12.2H18.7c-1.7,0-3.3,1.1-3.8,2.8l-6,18.3c-0.1,0.4-0.2,0.8-0.2,1.2v22.4c0,1.7,1.3,3,3,3h0c1.7,0,3-1.3,3-3v-3h42.5
		v3c0,1.7,1.3,3,3,3h0c1.7,0,3-1.3,3-3V34.5c0-0.4-0.1-0.8-0.2-1.2l-6-18.3C56.6,13.3,55,12.2,53.3,12.2z M18.7,16.2h34.6l4.4,13.7
		H14.3L18.7,16.2z M59.2,49.8H12.8v-16h46.5V49.8z"/>
</g>
</svg>
