<?xml version="1.0" encoding="utf-8"?>
<!-- Generator: Adobe Illustrator 24.0.0, SVG Export Plug-In . SVG Version: 6.00 Build 0)  -->
<svg version="1.1" id="Layer_1" xmlns="http://www.w3.org/2000/svg" xmlns:xlink="http://www.w3.org/1999/xlink" x="0px" y="0px"
	 viewBox="0 0 72 72" style="enable-background:new 0 0 72 72;" xml:space="preserve">
<style type="text/css">
	.st0{fill:none;}
</style>
<title>home</title>
<rect class="st0" width="72" height="72"/>
<path d="M62.2,34.4L38.7,13.2c-1.5-1.4-3.8-1.4-5.4,0L9.8,34.4c-0.8,0.7-0.9,2-0.1,2.8l0,0c0.7,0.8,2,0.9,2.8,0.1l1.4-1.3v19.7
	c0,2.2,1.8,4,4,4h10.6c2.2,0,4-1.8,4-4V44h7.1v11.8c0,2.2,1.8,4,4,4h10.6c2.2,0,4-1.8,4-4V36.2l1.3,1.2c0.8,0.7,2.1,0.7,2.8-0.1l0,0
	C63.1,36.4,63,35.1,62.2,34.4z M54.2,55.9H43.5V44c0-2.2-1.8-4-4-4h-7c-2.2,0-4,1.8-4,4v11.8H17.9V32.5L36,16.2l18.1,16.3L54.2,55.9
	z"/>
</svg>
