<?xml version="1.0" encoding="utf-8"?>
<!-- Generator: Adobe Illustrator 24.0.0, SVG Export Plug-In . SVG Version: 6.00 Build 0)  -->
<svg version="1.1" id="Layer_1" xmlns="http://www.w3.org/2000/svg" xmlns:xlink="http://www.w3.org/1999/xlink" x="0px" y="0px"
	 viewBox="0 0 72 72" style="enable-background:new 0 0 72 72;" xml:space="preserve">
<style type="text/css">
	.st0{fill:none;}
</style>
<title>lock</title>
<rect class="st0" width="72" height="72"/>
<path d="M19,26c-2.2,0-4,1.8-4,4v29c0,2.2,1.8,4,4,4h34c2.2,0,4-1.8,4-4V30c0-2.2-1.8-4-4-4h-5v-4.6c0-6.2-4.6-11.7-10.8-12.3
	c-6.3-0.6-11.8,3.7-13,9.6C24,19.9,25,21,26.2,21h0c0.9,0,1.8-0.6,1.9-1.5c0.8-4.1,4.7-7,9.1-6.4c3.9,0.6,6.7,4.2,6.7,8.1l0,4.8H19z
	 M53,59H19V30h34V59z"/>
<path d="M36,38.5c-3.3,0-6,2.7-6,6s2.7,6,6,6s6-2.7,6-6S39.3,38.5,36,38.5z M36,47c-1.4,0-2.5-1.1-2.5-2.5S34.6,42,36,42
	s2.5,1.1,2.5,2.5S37.4,47,36,47z"/>
</svg>
