<?xml version="1.0" encoding="utf-8"?>
<!-- Generator: Adobe Illustrator 24.0.0, SVG Export Plug-In . SVG Version: 6.00 Build 0)  -->
<svg version="1.1" id="Layer_1" xmlns="http://www.w3.org/2000/svg" xmlns:xlink="http://www.w3.org/1999/xlink" x="0px" y="0px"
	 viewBox="0 0 72 72" style="enable-background:new 0 0 72 72;" xml:space="preserve">
<style type="text/css">
	.st0{fill:none;}
</style>
<title>person</title>
<rect class="st0" width="72" height="72"/>
<g>
	<g>
		<path d="M66.5,56.2c0-3.4-1.7-6.6-4.6-8.4c-6.5-4.2-14.2-6.6-22.4-6.6s-16,2.4-22.4,6.6c-2.8,1.8-4.6,5-4.6,8.4v3c0,2.2,1.8,4,4,4
			h46c2.2,0,4-1.8,4-4V56.2z M16.5,59.2v-3.5c0-1.6,0.8-3.2,2.2-4.1c6-4,13.1-6.3,20.8-6.3s14.9,2.3,20.8,6.3
			c1.4,0.9,2.2,2.5,2.2,4.1v3.5H16.5z"/>
		<path d="M39.5,8.8c-7.7,0-14,6.3-14,14s6.3,14,14,14s14-6.3,14-14S47.2,8.8,39.5,8.8z M39.5,32.8c-5.5,0-10-4.5-10-10
			s4.5-10,10-10s10,4.5,10,10S45,32.8,39.5,32.8z"/>
	</g>
	<path d="M23.5,32h-6v-6c0-1.1-0.9-2-2-2h0c-1.1,0-2,0.9-2,2v6h-6c-1.1,0-2,0.9-2,2v0c0,1.1,0.9,2,2,2h6v6c0,1.1,0.9,2,2,2h0
		c1.1,0,2-0.9,2-2v-6h6c1.1,0,2-0.9,2-2v0C25.5,32.9,24.6,32,23.5,32z"/>
</g>
</svg>
