<?xml version="1.0" encoding="utf-8"?>
<!-- Generator: Adobe Illustrator 24.0.0, SVG Export Plug-In . SVG Version: 6.00 Build 0)  -->
<svg version="1.1" id="Layer_1" xmlns="http://www.w3.org/2000/svg" xmlns:xlink="http://www.w3.org/1999/xlink" x="0px" y="0px"
	 viewBox="0 0 72 72" style="enable-background:new 0 0 72 72;" xml:space="preserve">
<style type="text/css">
	.st0{fill:none;}
</style>
<path class="st0" d="M0,0h72v72H0V0z"/>
<path d="M36,28.9c5.5,0,10-4.5,10-10c0-5.5-4.5-10-10-10s-10,4.5-10,10C26,24.4,30.5,28.9,36,28.9z M36,12.9c3.3,0,6,2.7,6,6
	s-2.7,6-6,6s-6-2.7-6-6S32.7,12.9,36,12.9z"/>
<path d="M55.7,28.4C48.3,29,41.4,32.1,36,37.1c-5.1-4.7-11.5-7.8-18.5-8.6c-2.4-0.3-4.5,1.5-4.5,4v19.7c0,1.6,1.3,3,3,3
	c7,0,13.7,2.7,18.6,7.4c0.8,0.7,2,0.7,2.7,0c5-4.7,11.7-7.4,18.6-7.4c1.6,0,3-1.3,3-3l0-20.8C59,29.6,57.5,28.2,55.7,28.4z M55,51.2
	c-7,0.2-13.7,2.8-19,7.3c-5.3-4.5-12-7.1-19-7.3V32.5c6.7,0.8,12.9,4,17.6,8.8c0.8,0.8,2.1,0.8,2.9,0c4.6-4.9,10.8-8,17.6-8.8V51.2z
	"/>
</svg>
