<?xml version="1.0" encoding="utf-8"?>
<!-- Generator: Adobe Illustrator 24.0.0, SVG Export Plug-In . SVG Version: 6.00 Build 0)  -->
<svg version="1.1" id="Layer_1" xmlns="http://www.w3.org/2000/svg" xmlns:xlink="http://www.w3.org/1999/xlink" x="0px" y="0px"
	 viewBox="0 0 72 72" style="enable-background:new 0 0 72 72;" xml:space="preserve">
<style type="text/css">
	.st0{fill:none;}
</style>
<title>account_box</title>
<rect class="st0" width="72" height="72"/>
<g>
	<path d="M36.2,33c5.1,0,9.2-4.1,9.2-9.2s-4.1-9.2-9.2-9.2S27,18.7,27,23.7S31.2,33,36.2,33z M36.2,18.2c3,0,5.5,2.5,5.5,5.5
		s-2.5,5.5-5.5,5.5s-5.5-2.5-5.5-5.5S33.2,18.2,36.2,18.2z"/>
	<path d="M36.3,35.3c-6.1,0-11.7,2.1-16.2,5.6c-0.9,0.7-1.4,1.8-1.4,2.9v2.8c0,2,1.6,3.7,3.7,3.7H50c2,0,3.7-1.6,3.7-3.7v-3
		c0-1.1-0.5-2.2-1.4-2.9C47.8,37.3,42.3,35.3,36.3,35.3z M22.4,46.6v-1.9c0-0.6,0.3-1.1,0.7-1.5c3.7-2.7,8.3-4.3,13.2-4.3
		c4.8,0,9.3,1.5,13,4.1c0.5,0.3,0.8,0.9,0.8,1.5v2.1H22.4z"/>
	<path d="M59,6.4H13c-2.2,0-4,1.8-4,4v44c0,2.2,1.8,4,4,4h14.6l6.3,6.3c1.2,1.2,3.1,1.2,4.2,0l6.3-6.3H59c2.2,0,4-1.8,4-4v-44
		C63,8.2,61.2,6.4,59,6.4z M36,61.2l-6.1-6.1c-0.4-0.4-0.9-0.6-1.4-0.6H13V10.3h46v44.3H43.5c-0.5,0-1,0.2-1.4,0.6L36,61.2z"/>
</g>
</svg>
